<svg version="1.1" id="Layer_1" xmlns="http://www.w3.org/2000/svg" xmlns:xlink="http://www.w3.org/1999/xlink" x="0px" y="0px"
	 width="100%" viewBox="0 0 1024 1024" enable-background="new 0 0 1024 1024" xml:space="preserve">
<path fill="#1b3135" opacity="1.000000" stroke="none" 
	d="
M227.032043,529.951904 
	C223.584961,529.949219 220.617844,529.949219 217.015488,529.949219 
	C217.662704,538.062134 221.676987,543.238281 227.447250,547.214172 
	C232.343170,550.587646 237.930725,552.554749 243.859863,552.580994 
	C273.349640,552.711731 302.840302,552.648254 332.330658,552.635681 
	C333.140198,552.635315 333.949677,552.438049 335.797882,552.197266 
	C324.654114,521.677734 313.120758,491.745148 300.524994,460.731110 
	C307.416870,460.731110 312.990387,460.736847 318.563873,460.729980 
	C331.778015,460.713654 331.718567,460.732574 336.234528,473.300385 
	C343.718628,494.128448 351.277466,514.929749 358.840881,535.729187 
	C359.444275,537.388611 359.718903,539.288635 361.581573,540.575623 
	C368.343933,522.542358 375.069519,504.651001 381.759247,486.746216 
	C384.497833,479.416626 387.150482,472.054993 389.861053,464.714935 
	C390.552216,462.843323 391.111298,460.686584 393.657135,460.670471 
	C402.599335,460.613922 411.542084,460.648529 421.295654,460.648529 
	C419.173523,468.586182 415.647888,474.812683 413.039459,481.364929 
	C401.032410,511.525909 388.712494,541.563477 376.900299,571.799744 
	C375.097778,576.413757 372.709717,577.836975 368.242767,577.723755 
	C359.087402,577.491699 349.925537,577.361572 340.767609,577.412781 
	C309.617371,577.586975 278.467560,578.048706 247.317841,578.026550 
	C226.196747,578.011536 208.449738,570.252625 196.488510,552.311462 
	C177.797577,524.276123 186.723694,478.434326 220.899063,464.346375 
	C243.048782,455.215729 276.423248,457.833130 292.312134,480.871368 
	C300.574188,492.851013 302.590057,506.262512 303.003418,520.236084 
	C303.032990,521.234802 302.992584,522.235413 303.003174,523.234924 
	C303.073425,529.871277 302.920502,529.989807 296.446991,529.982605 
	C273.468658,529.957031 250.490341,529.961487 227.032043,529.951904 
M270.254578,496.327698 
	C263.205994,484.460510 251.907669,482.873016 239.816452,484.421967 
	C228.988098,485.809174 221.774765,492.292236 218.121552,502.608368 
	C216.295898,507.763794 217.051559,508.827667 222.514008,508.824219 
	C236.145126,508.815582 249.776215,508.750702 263.407318,508.751007 
	C275.339050,508.751282 275.698822,508.190735 270.254578,496.327698 
z"/>
<path fill="#1b3135" opacity="1.000000" stroke="none" 
	d="
M179.016846,529.783081 
	C169.722046,555.808350 150.776520,569.808472 124.812126,575.216919 
	C108.510361,578.612610 91.941696,576.847473 75.487190,577.206970 
	C67.993179,577.370789 60.482227,577.019775 52.999798,577.360229 
	C48.139896,577.581299 46.662205,575.767883 46.685024,571.032654 
	C46.842422,538.378357 46.788017,505.723145 46.793736,473.068207 
	C46.795776,461.405884 46.899265,449.741486 46.699665,438.082397 
	C46.628433,433.921539 48.168114,432.603821 52.255047,432.637817 
	C71.580093,432.798645 90.927795,432.162262 110.227722,432.878998 
	C129.770676,433.604767 147.942490,439.034943 162.865143,452.650360 
	C175.767334,464.422272 181.538773,479.574524 183.175095,496.436493 
	C184.260681,507.623260 182.887039,518.709045 179.016846,529.783081 
M122.293091,547.820374 
	C124.626244,546.947510 127.060890,546.277588 129.276443,545.169556 
	C146.779510,536.415894 156.416321,515.681946 152.298767,495.829926 
	C148.078995,475.485199 137.330978,464.514557 117.692238,460.792572 
	C105.163841,458.418121 92.468864,459.544464 79.839211,459.353546 
	C76.912949,459.309296 76.269737,461.107605 76.271904,463.605164 
	C76.295731,491.079620 76.300056,518.554077 76.270699,546.028564 
	C76.268097,548.466980 77.115814,549.830139 79.730576,549.739563 
	C93.662605,549.256836 107.692795,551.250244 122.293091,547.820374 
z"/>
<path fill="#1b3135" opacity="1.000000" stroke="none" 
	d="
M445.802429,432.792297 
	C439.070709,438.915283 435.262848,446.635651 431.599426,454.267151 
	C429.644409,453.606750 429.965912,452.536102 430.177643,451.589478 
	C433.569550,436.426025 437.771881,421.552948 446.182953,408.250580 
	C447.601624,406.006897 449.159424,403.817261 450.900238,401.817993 
	C455.245453,396.827637 460.301727,394.405914 467.443573,394.487854 
	C503.428864,394.900757 539.421204,394.697205 575.411072,394.707123 
	C583.377319,394.709320 583.364441,394.703979 583.357117,402.583954 
	C583.340637,420.411774 583.458679,438.241028 583.244690,456.066376 
	C583.191772,460.475769 584.635559,462.009247 588.994446,461.765015 
	C594.309631,461.467285 599.660583,461.854614 604.983765,461.639526 
	C608.755737,461.487183 610.532043,462.653687 610.311340,466.713074 
	C610.058472,471.364502 610.067078,476.050446 610.314453,480.702637 
	C610.529907,484.755920 609.116394,486.473969 604.909241,486.292847 
	C599.421753,486.056610 593.913269,486.355103 588.417542,486.242981 
	C585.465332,486.182770 584.220154,487.264587 584.232300,490.310486 
	C584.300537,507.471771 584.095093,524.635498 584.309570,541.794312 
	C584.423462,550.903015 592.549316,555.548096 602.118225,551.340271 
	C607.589844,548.934204 608.816406,550.390259 609.961243,555.371582 
	C610.882141,559.378723 612.848938,563.165100 614.528870,566.971313 
	C615.632568,569.472107 614.944092,570.935364 612.650330,572.265869 
	C601.716309,578.608215 590.036255,580.159485 577.945007,577.072266 
	C564.129211,573.544617 555.932800,562.261292 555.758911,546.891907 
	C555.553589,528.732788 555.539246,510.568481 555.741455,492.409790 
	C555.794983,487.607666 554.250061,485.576263 549.440735,486.253174 
	C548.460449,486.391174 547.432922,486.176849 546.446350,486.290558 
	C541.951050,486.808563 540.527405,484.612396 540.783813,480.410645 
	C541.016846,476.592010 541.100098,472.729584 540.800110,468.921844 
	C540.426453,464.179871 542.723145,462.201263 547.056335,461.867859 
	C548.549072,461.752960 550.060120,461.650085 551.548462,461.751617 
	C554.518677,461.954224 555.751404,460.749207 555.723267,457.701080 
	C555.625000,447.038330 555.576904,436.372345 555.749939,425.711456 
	C555.810242,421.995850 554.112183,421.265625 550.876892,421.314758 
	C534.728149,421.560211 518.574768,421.894409 502.427612,421.735931 
	C489.940796,421.613403 477.453400,420.969147 465.096069,423.274658 
	C457.945740,424.608734 451.373932,427.338898 445.802429,432.792297 
z"/>
<path fill="#1b3135" opacity="1.000000" stroke="none" 
	d="
M491.009277,488.856079 
	C500.519501,491.557983 509.733551,493.819427 518.149048,498.461273 
	C532.629944,506.448669 539.930420,518.427979 539.372070,535.131775 
	C538.838806,551.082886 531.264343,562.714661 517.571289,570.263245 
	C500.865417,579.472778 483.099091,579.271790 465.169067,574.725708 
	C452.279510,571.457642 440.752777,565.140381 429.626831,557.990845 
	C426.077911,555.710266 425.460480,553.292969 427.549438,549.714905 
	C430.905365,543.966553 434.105713,538.125854 437.289093,532.279114 
	C438.859131,529.395447 440.386047,529.055420 443.085846,531.263184 
	C453.385773,539.685791 464.746063,546.145752 477.903168,549.040344 
	C483.675812,550.310364 489.518616,550.346924 495.280243,549.441956 
	C502.082153,548.373596 506.972443,543.705200 507.833282,538.214294 
	C508.943817,531.130981 506.686951,526.617004 499.609192,522.726685 
	C491.800507,518.434692 483.046417,516.773193 474.629547,514.175537 
	C465.234802,511.276062 455.722351,508.489197 447.921448,502.155548 
	C426.618103,484.859131 431.276581,449.263184 456.400757,437.346405 
	C476.102997,428.001312 496.148254,429.519440 516.261780,435.907227 
	C522.634033,437.930969 528.502808,441.121521 534.542236,443.920624 
	C537.796082,445.428680 538.505127,447.411346 536.810852,450.631836 
	C533.867065,456.227295 531.045654,461.893768 528.384521,467.628662 
	C526.849365,470.936951 525.031250,471.012848 522.080872,469.343536 
	C510.186859,462.614044 497.636810,457.990936 483.696716,458.318634 
	C479.115417,458.426331 474.774994,459.393372 471.005310,462.175598 
	C464.780090,466.770111 464.545898,475.297211 470.563751,480.194427 
	C476.416992,484.957703 483.560150,486.768066 491.009277,488.856079 
z"/>
<path fill="#1b3135" opacity="1.000000" stroke="none" 
	d="
M819.840393,505.250916 
	C829.929565,462.335205 875.807434,450.141052 906.471924,466.141479 
	C920.798218,473.616791 928.524658,486.484161 931.969177,502.010132 
	C933.484375,508.840027 934.177917,515.760010 934.348633,522.785706 
	C934.467834,527.691223 933.066040,529.488464 927.887695,529.434509 
	C906.412720,529.210876 884.933044,529.344910 863.455872,529.473755 
	C858.553894,529.503113 853.655029,530.034790 848.767029,530.334473 
	C849.931213,543.565491 862.397766,551.781799 871.706787,552.697937 
	C883.436096,553.852112 894.719238,552.719055 904.602051,545.529236 
	C907.267639,543.590027 908.896423,544.025879 910.682129,546.662537 
	C913.575500,550.934570 916.619873,555.120544 919.848206,559.144104 
	C922.339539,562.248901 921.797424,564.229370 918.555481,566.342712 
	C903.712708,576.017761 887.484192,579.527039 869.988831,577.608215 
	C853.451355,575.794312 839.523560,568.875244 829.800964,555.203735 
	C820.020142,541.450134 816.839539,525.863647 819.389709,509.147552 
	C819.565247,507.996857 819.644409,506.831451 819.840393,505.250916 
M869.351929,484.730713 
	C857.703003,487.911926 848.687195,498.455627 849.293640,508.270081 
	C867.792664,508.270081 886.292114,508.270081 904.805359,508.270081 
	C904.337524,496.577881 897.952393,488.087585 887.848572,485.031616 
	C881.971802,483.254150 876.094727,482.895416 869.351929,484.730713 
z"/>
<path fill="#1b3135" opacity="1.000000" stroke="none" 
	d="
M659.825623,461.571533 
	C687.837402,455.006989 715.586304,464.201385 729.076904,487.349548 
	C746.260742,516.834839 736.050232,555.991150 707.304504,571.111633 
	C682.677979,584.065430 649.386963,579.265381 631.929749,560.378479 
	C607.126282,533.543823 611.333557,483.188049 648.194519,465.764160 
	C651.782349,464.068237 655.670166,463.007080 659.825623,461.571533 
M707.708984,518.494568 
	C707.690063,517.162598 707.717590,515.828064 707.645020,514.498962 
	C706.912109,501.063324 699.232666,489.719879 687.377136,486.314240 
	C674.593384,482.641998 661.687988,484.501801 652.678711,496.058563 
	C645.580933,505.163391 644.356689,515.730164 646.412598,526.825317 
	C649.912048,545.711304 668.056580,557.020630 686.083435,551.570923 
	C698.694458,547.758545 707.388062,534.825195 707.708984,518.494568 
z"/>
<path fill="#1b3135" opacity="1.000000" stroke="none" 
	d="
M750.943970,520.913696 
	C751.156799,502.604797 751.488342,484.782959 751.514343,466.960663 
	C751.520508,462.759125 752.996399,461.435760 757.050903,461.603973 
	C763.372375,461.866272 769.713379,461.761627 776.043701,461.661407 
	C778.990112,461.614746 780.320557,462.701080 780.185181,465.754150 
	C780.031677,469.217133 780.149780,472.692139 780.149780,477.378235 
	C789.928772,466.629120 800.364075,459.282654 815.405273,459.193237 
	C815.405273,465.291870 815.372314,471.064270 815.412537,476.836121 
	C815.483337,487.006775 815.502014,487.006592 805.856934,489.044678 
	C790.563232,492.276337 780.617188,504.520599 780.325012,521.070129 
	C780.030945,537.729797 779.999939,554.396667 780.103271,571.058838 
	C780.128357,575.095459 779.133545,576.731018 774.789368,576.466736 
	C768.479431,576.082947 762.124634,576.182434 755.799683,576.394348 
	C752.011780,576.521362 750.798706,574.887024 750.843384,571.365662 
	C750.999756,559.036072 751.054138,546.704895 751.102051,534.374207 
	C751.118835,530.049927 751.005188,525.725098 750.943970,520.913696 
z"/>
<path fill="#1b3135" opacity="1.000000" stroke="none" 
	d="
M968.912109,546.479614 
	C969.372375,554.413025 969.776123,561.901978 968.248840,569.319397 
	C967.580566,572.564880 966.084167,574.228821 962.228027,574.508423 
	C955.237671,575.015137 948.261658,574.687988 941.291687,575.016113 
	C937.798645,575.180664 936.510193,573.679932 936.601318,570.296753 
	C936.807800,562.636169 936.933777,554.970886 936.914612,547.307922 
	C936.907043,544.305298 938.211426,543.036865 941.072021,543.019348 
	C948.901611,542.971375 956.731262,542.927124 964.560486,542.840820 
	C966.846008,542.815674 968.463135,543.548889 968.912109,546.479614 
z"/>
</svg>